<?xml version="1.0" encoding="utf-8"?>
<!-- Generator: Adobe Illustrator 24.3.0, SVG Export Plug-In . SVG Version: 6.00 Build 0)  -->
<svg version="1.1" xmlns="http://www.w3.org/2000/svg" xmlns:xlink="http://www.w3.org/1999/xlink" x="0px" y="0px"
	 viewBox="0 0 2000 2000" style="enable-background:new 0 0 2000 2000;" xml:space="preserve">
<style type="text/css">
	.st0{display:none;}
	.st1{display:inline;}
	.st2{font-family:'UniSansBold';}
	.st3{font-size:700px;}
	.st4{letter-spacing:-32;}
	.st5{letter-spacing:-65;}
	.st6{letter-spacing:-11;}
	.st7{display:inline;clip-path:url(#SVGID_2_);}
	.st8{fill:#231F20;}
	.st9{display:inline;clip-path:url(#SVGID_4_);}
	.st10{display:inline;fill:none;stroke:#000000;stroke-width:50;stroke-miterlimit:10;}
	.st11{display:inline;fill:#F1F2F2;stroke:#231F20;stroke-miterlimit:10;}
</style>
<g id="Layer_1">
	<text transform="matrix(1 0 0 1 376.3123 1209.9971)" class="st0"><tspan x="0" y="0" class="st1 st2 st3 st4">L</tspan><tspan x="338.8" y="0" class="st1 st2 st3 st5">I</tspan><tspan x="462.7" y="0" class="st1 st2 st3 st6">FT</tspan></text>
	<g>
		<path d="M419.71,714.4h102.9v392h214.2V1210h-317.1V714.4z"/>
		<path d="M861.41,1210h-102.9V714.4h102.9V1210z"/>
		<path d="M986.01,923.7h203v101.5h-203V1210h-103.6V714.4h335.3v100.1h-231.7V923.7z"/>
		<path d="M1481.6,814.5V1210H1378V814.5h-142.1V713.7h387.8v100.8H1481.6z"/>
	</g>
	<g class="st0">
		<path class="st1" d="M430.32,1210V706.53h69.04v439.89h250.88V1210H430.32z"/>
		<path class="st1" d="M774.09,1210V706.53h68.36V1210H774.09z"/>
		<path class="st1" d="M886.71,1210V706.53h338.04v63.23H955.07v151.07h235.5v61.52h-235.5V1210H886.71z"/>
		<path class="st1" d="M1406.99,1210V767.71h-158.94v-61.18h386.57v61.18h-158.94V1210H1406.99z"/>
	</g>
	<g class="st0">
		<path class="st1" d="M419.71,714.4h102.9v392h214.2V1210h-279.4c-20.82,0-37.7-16.88-37.7-37.7V714.4z"/>
		<path class="st1" d="M861.41,1210h-102.9V714.4h102.9V1210z"/>
		<path class="st1" d="M986.01,923.7h203v101.5h-203V1210h-103.6V714.4h335.3v100.1h-231.7V923.7z"/>
		<path class="st1" d="M1481.6,817.3V1210H1378V817.3h-142.1V713.7h387.8v103.6H1481.6z"/>
	</g>
	<g class="st0">
		<defs>
			<polygon id="SVGID_1_" points="1433,1592.33 604.44,1592.33 1433,370.11 			"/>
		</defs>
		<clipPath id="SVGID_2_" class="st1">
			<use xlink:href="#SVGID_1_"  style="overflow:visible;"/>
		</clipPath>
		<g class="st7">
			<text transform="matrix(1 0 0 1 376.3123 1209.9971)"><tspan x="0" y="0" class="st8 st2 st3 st4">L</tspan><tspan x="338.8" y="0" class="st8 st2 st3 st5">I</tspan><tspan x="462.7" y="0" class="st8 st2 st3 st6">FT</tspan></text>
		</g>
	</g>
</g>
<g id="Layer_2">
	<polygon class="st0" points="325.56,1246.22 1674.44,1246.22 325.56,1319.56 	"/>
	<polygon class="st0" points="1674.44,676.89 325.56,676.89 1674.44,603.56 	"/>
	<path d="M325.56,1246.22h1348.89c-225.95,2.17-451.61,9.39-677,21.67c-224.23,12.22-448.19,29.44-671.89,51.67
		C325.56,1295.11,325.56,1270.67,325.56,1246.22z"/>
	<path d="M1674.44,676.83l-1348.89,0c225.95-2.17,451.61-9.39,677-21.67c224.23-12.22,448.19-29.44,671.89-51.67
		C1674.44,627.94,1674.44,652.39,1674.44,676.83z"/>
	<g class="st0">
		<defs>
			<polygon id="SVGID_3_" points="1433,1592.33 604.44,1592.33 1433,370.11 			"/>
		</defs>
		<clipPath id="SVGID_4_" class="st1">
			<use xlink:href="#SVGID_3_"  style="overflow:visible;"/>
		</clipPath>
		<g class="st9">
			<polygon class="st8" points="1674.44,676.89 325.56,676.89 1674.44,603.56 			"/>
			<polygon class="st8" points="325.56,1246.22 1674.44,1246.22 325.56,1319.56 			"/>
		</g>
	</g>
</g>
<g id="Layer_4" class="st0">
	<rect x="346.22" y="608.11" class="st10" width="1335.56" height="717.78"/>
</g>
<g id="Layer_3" class="st0">
	<polygon class="st11" points="1433,1592.33 604.44,1592.33 1433,370.11 	"/>
</g>
</svg>
